PathFileType	4	(X/Y/Z)	C:\Users\°ÂÌØÂü\Desktop\20201223\Trimmed_bx_n_5_901.trc
DataRate	CameraRate	NumFrames	NumMarkers	Units	OrigDataRate	OrigDataStartFrame	OrigNumFrames
50.00	50.00	       5	43	mm	50.00	252	       402
Frame#	Time	Top.Head			R.Acromium			L.Acromium			Sternum			R.ASIS			L.ASIS			V.Sacral			R.Thigh.Upper			R.Thigh.Front			R.Thigh.Rear			R.Knee.Lat			R.Knee.Med			R.Shank.Upper			R.Shank.Front			R.Shank.Rear			R.Ankle.Lat			R.Midfoot.Lat			R.Toe.Lat			R.Toe.Tip			R.Toe.Med			R.Ankle.Med			R.Midfoot.Sup			R.Heel			L.Thigh.Upper			L.Thigh.Front			L.Thigh.Rear			L.Knee.Lat			L.Knee.Med			L.Shank.Upper			L.Shank.Front			L.Shank.Rear			L.Ankle.Lat			L.Midfoot.Lat			L.Toe.Lat			L.Toe.Tip			L.Toe.Med			L.Ankle.Med			L.Midfoot.Sup			L.Heel			origin1 front left			origin2 front right			origin 3 back right			origin 4 back leftt			
		X1	Y1	Z1	X2	Y2	Z2	X3	Y3	Z3	X4	Y4	Z4	X5	Y5	Z5	X6	Y6	Z6	X7	Y7	Z7	X8	Y8	Z8	X9	Y9	Z9	X10	Y10	Z10	X11	Y11	Z11	X12	Y12	Z12	X13	Y13	Z13	X14	Y14	Z14	X15	Y15	Z15	X16	Y16	Z16	X17	Y17	Z17	X18	Y18	Z18	X19	Y19	Z19	X20	Y20	Z20	X21	Y21	Z21	X22	Y22	Z22	X23	Y23	Z23	X24	Y24	Z24	X25	Y25	Z25	X26	Y26	Z26	X27	Y27	Z27	X28	Y28	Z28	X29	Y29	Z29	X30	Y30	Z30	X31	Y31	Z31	X32	Y32	Z32	X33	Y33	Z33	X34	Y34	Z34	X35	Y35	Z35	X36	Y36	Z36	X37	Y37	Z37	X38	Y38	Z38	X39	Y39	Z39	X40	Y40	Z40	X41	Y41	Z41	X42	Y42	Z42	X43	Y43	Z43	

252	5.020	-570.22510	239.31387	1838.46143	-612.47803	62.88474	1531.70325	-596.11725	419.73071	1538.91028	-522.29248	239.58029	1345.06262	-560.52515	114.83599	1035.05725	-541.83856	343.74094	1042.47412	-751.43225	240.17668	1062.02417	-634.97815	69.33179	834.23804	-544.54968	132.23837	813.58356	-635.39178	83.59612	724.15509	-671.38135	107.17444	603.87695	-655.97491	217.28004	564.49921	-698.61060	106.41574	538.25653	-624.42926	162.60321	527.46759	-704.91644	99.21162	486.63376	-688.34131	137.82932	211.80402	-606.58838	85.84142	163.67635	-558.10651	69.76759	161.37454	-483.34235	119.18039	157.28375	-533.51276	167.43849	163.80945	-648.20172	219.12071	221.87514	-601.60278	198.61470	171.85756	-729.60846	200.77979	170.70126	-627.20398	424.25964	857.42780	-543.90210	375.66867	817.01099	-648.26599	414.55084	742.98120	-663.27075	397.76636	607.77405	-649.80988	286.95877	568.18103	-678.27039	400.67026	561.17059	-619.54321	345.26138	536.91071	-730.44702	404.42722	496.09760	-678.47876	403.75894	215.35872	-581.51971	450.65802	163.36494	-544.49323	461.37439	157.76479	-480.80200	408.88043	165.62234	-525.19641	369.61249	176.71861	-647.58276	311.63989	209.17569	-596.30548	330.70007	170.45638	-735.16589	335.19989	161.12711	-443.86224	448.31851	146.69504	-450.39694	74.74590	143.38055	-806.07428	81.90478	141.09755	-799.62549	456.85254	145.07872	
253	5.040	-557.34760	239.36926	1837.15955	-608.42145	62.92583	1531.29553	-591.99274	419.77768	1538.04846	-521.92395	239.67558	1343.11340	-563.73053	114.98109	1035.01587	-543.96460	343.45099	1041.88794	-754.40717	240.48132	1062.56750	-638.12805	69.52631	834.32678	-547.48346	132.28033	813.77661	-637.97809	83.60609	724.17090	-673.32135	107.23674	603.80896	-657.60187	217.36314	564.45111	-700.18164	106.54260	538.17078	-625.91571	162.67542	527.63031	-706.27277	99.31187	486.51776	-688.53107	137.75610	211.77411	-606.59760	85.80998	163.66382	-558.13873	69.76215	161.35686	-483.36273	119.19711	157.30305	-533.51819	167.44861	163.80650	-648.34918	219.05029	221.85356	-601.64575	198.61786	171.96783	-729.64270	200.73257	170.68332	-630.11932	424.41782	857.51575	-546.60742	375.84305	817.21826	-650.67975	414.81924	742.94733	-665.11389	397.95081	607.69550	-651.75085	287.22861	568.16370	-679.90521	400.84830	561.06897	-621.09180	345.40173	536.98743	-731.77344	404.62085	495.77075	-678.57916	403.79538	215.28624	-581.51575	450.68494	163.34857	-544.48889	461.37701	157.75327	-480.86514	408.86502	165.66399	-525.21222	369.61313	176.75783	-647.70367	311.67352	209.17267	-596.25806	330.71024	170.62079	-735.08698	335.27505	161.14659	-443.83765	448.34903	146.68869	-450.39587	74.75116	143.36658	-806.08319	81.88557	141.12714	-799.56769	456.94534	145.14108	
254	5.060	-543.90833	239.47501	1835.35034	-604.14539	62.98493	1530.75562	-587.58411	419.80576	1537.01599	-521.55615	239.75529	1340.99255	-567.19464	115.09858	1034.92261	-546.21716	343.14008	1041.19031	-757.58997	240.84843	1063.13928	-641.56805	69.70869	834.40955	-550.68152	132.28082	813.98572	-640.80615	83.60792	724.17725	-675.42438	107.30334	603.73236	-659.33203	217.44789	564.39301	-701.88745	106.68046	538.06628	-627.52496	162.74699	527.80145	-707.74011	99.41013	486.38297	-688.73297	137.66756	211.74005	-606.61279	85.77338	163.64240	-558.17438	69.74915	161.33485	-483.39493	119.21319	157.33087	-533.53247	167.45091	163.81929	-648.52734	218.97789	221.84334	-601.68158	198.62311	172.09982	-729.68683	200.66908	170.65881	-633.19482	424.62726	857.60077	-549.51288	375.97644	817.40283	-653.24884	415.11172	742.89050	-667.08362	398.16208	607.60370	-653.85089	287.49875	568.17548	-681.65839	401.06396	560.94751	-622.77728	345.55344	537.06317	-733.19592	404.87817	495.41846	-678.68481	403.84290	215.21049	-581.51678	450.71616	163.32254	-544.48071	461.38345	157.74762	-480.92758	408.84192	165.71971	-525.23914	369.60361	176.79160	-647.84662	311.71927	209.18185	-596.21051	330.71399	170.80304	-735.01984	335.36526	161.15953	-443.81549	448.36389	146.67772	-450.39859	74.75778	143.35463	-806.10638	81.88619	141.14488	-799.50159	457.04199	145.20561	
255	5.080	-529.98352	239.62799	1832.98206	-599.64349	63.06308	1530.06274	-582.89667	419.81137	1535.78308	-521.19318	239.81047	1338.69373	-570.91376	115.18855	1034.76294	-548.67328	342.84125	1040.43823	-760.98090	241.27383	1063.73877	-645.28668	69.87915	834.48370	-554.12866	132.23891	814.21527	-643.86371	83.60555	724.17242	-677.68402	107.37882	603.64874	-661.17126	217.53563	564.32471	-703.72852	106.83161	537.94098	-629.25708	162.82144	527.97882	-709.31458	99.50512	486.22968	-688.93475	137.56607	211.70354	-606.63483	85.73169	163.61053	-558.20660	69.72758	161.31239	-483.44211	119.22807	157.36644	-533.55884	167.44127	163.85149	-648.73187	218.90439	221.85252	-601.70728	198.62782	172.24434	-729.74139	200.58952	170.62706	-636.43481	424.88177	857.67822	-552.62964	376.06805	817.56171	-655.97632	415.42502	742.81134	-669.18390	398.40216	607.49445	-656.11890	287.76685	568.20605	-683.53412	401.32312	560.80786	-624.60217	345.72400	537.14380	-734.72223	405.20059	495.03857	-678.80145	403.90625	215.12917	-581.52435	450.75146	163.28764	-544.46912	461.39377	157.74579	-480.98584	408.80872	165.78664	-525.28003	369.58832	176.81747	-648.00793	311.78265	209.21625	-596.18420	330.73038	170.98285	-734.97284	335.46429	161.16219	-443.80240	448.36176	146.66263	-450.40506	74.76371	143.34673	-806.13831	81.90337	141.14940	-799.43378	457.13239	145.26343	
256	5.100	-515.67242	239.82129	1830.01343	-594.90588	63.15971	1529.19202	-577.94019	419.79184	1534.31714	-520.83984	239.83305	1336.20776	-574.87689	115.25166	1034.52771	-551.40668	342.58411	1039.69019	-764.57300	241.74826	1064.36279	-649.25879	70.04177	834.54468	-557.80109	132.16261	814.46490	-647.12646	83.60411	724.15363	-680.08612	107.46729	603.55853	-663.12708	217.62953	564.24469	-705.69977	106.99594	537.79395	-631.10706	162.90245	528.16034	-710.98926	99.59764	486.05804	-689.12665	137.45685	211.66501	-606.66455	85.68484	163.56787	-558.23206	69.69849	161.29109	-483.50711	119.24242	157.40813	-533.59888	167.41693	163.90436	-648.95685	218.82825	221.88689	-601.72345	198.62793	172.38995	-729.80566	200.49538	170.58652	-639.84369	425.17273	857.74365	-555.95959	376.12698	817.69836	-658.86243	415.75443	742.71167	-671.41492	398.67178	607.36505	-658.54852	288.03299	568.24310	-685.53290	401.62802	560.65247	-626.55981	345.92102	537.23547	-736.35535	405.58142	494.62946	-678.93555	403.99042	215.04189	-581.53949	450.79123	163.24521	-544.45544	461.40717	157.74449	-481.03702	408.76627	165.86148	-525.33636	369.57465	176.83536	-648.18567	311.87250	209.28387	-596.19611	330.77472	171.14296	-734.95154	335.56393	161.15308	-443.80414	448.34482	146.64352	-450.41470	74.76672	143.34421	-806.17218	81.93085	141.14189	-799.37115	457.20709	145.30618	
